<svg id="visual" viewBox="0 0 2000 4000" width="2000" height="4000" xmlns="http://www.w3.org/2000/svg" xmlns:xlink="http://www.w3.org/1999/xlink" version="1.1"><g stroke-width="1" stroke-linejoin="bevel"><path d="M1034.9 2008L1075.9 1862.2L956.1 1956Z" fill="#7cb2f9" stroke="#7cb2f9"></path><path d="M1075.9 1862.2L898.1 1836.2L956.1 1956Z" fill="#7cb2f9" stroke="#7cb2f9"></path><path d="M1283.8 1981L1193.8 1820.2L1075.9 1862.2Z" fill="#4a0eb3" stroke="#4a0eb3"></path><path d="M1075.9 1862.2L1034.9 1646.3L898.1 1836.2Z" fill="#462dc0" stroke="#462dc0"></path><path d="M973.1 2140.8L1034.9 2008L956.1 1956Z" fill="#5185eb" stroke="#5185eb"></path><path d="M973.1 2140.8L1028.9 2146.8L1034.9 2008Z" fill="#4a0eb3" stroke="#4a0eb3"></path><path d="M1034.9 2008L1283.8 1981L1075.9 1862.2Z" fill="#4a0eb3" stroke="#4a0eb3"></path><path d="M768.2 2003L973.1 2140.8L956.1 1956Z" fill="#462dc0" stroke="#462dc0"></path><path d="M1244.8 2210.8L1283.8 1981L1034.9 2008Z" fill="#4875e5" stroke="#4875e5"></path><path d="M898.1 1836.2L768.2 2003L956.1 1956Z" fill="#4365dd" stroke="#4365dd"></path><path d="M1193.8 1820.2L1034.9 1646.3L1075.9 1862.2Z" fill="#8ec0fc" stroke="#8ec0fc"></path><path d="M898.1 1836.2L723.2 1845.2L768.2 2003Z" fill="#4154d5" stroke="#4154d5"></path><path d="M1034.9 1646.3L908.1 1644.3L898.1 1836.2Z" fill="#6ba3f5" stroke="#6ba3f5"></path><path d="M1440.6 1882.2L1274.8 1736.3L1193.8 1820.2Z" fill="#7cb2f9" stroke="#7cb2f9"></path><path d="M1193.8 1820.2L1198.8 1592.5L1034.9 1646.3Z" fill="#5185eb" stroke="#5185eb"></path><path d="M820.2 1671.3L723.2 1845.2L898.1 1836.2Z" fill="#7cb2f9" stroke="#7cb2f9"></path><path d="M908.1 1644.3L820.2 1671.3L898.1 1836.2Z" fill="#7cb2f9" stroke="#7cb2f9"></path><path d="M586.4 2120.8L820.2 2211.8L768.2 2003Z" fill="#5185eb" stroke="#5185eb"></path><path d="M768.2 2003L820.2 2211.8L973.1 2140.8Z" fill="#7cb2f9" stroke="#7cb2f9"></path><path d="M973.1 2140.8L867.1 2279.7L1028.9 2146.8Z" fill="#4154d5" stroke="#4154d5"></path><path d="M1126.9 2316.7L1244.8 2210.8L1028.9 2146.8Z" fill="#6ba3f5" stroke="#6ba3f5"></path><path d="M1028.9 2146.8L1244.8 2210.8L1034.9 2008Z" fill="#4875e5" stroke="#4875e5"></path><path d="M1396.6 2122.8L1379.6 2011L1283.8 1981Z" fill="#8ec0fc" stroke="#8ec0fc"></path><path d="M1283.8 1981L1440.6 1882.2L1193.8 1820.2Z" fill="#4365dd" stroke="#4365dd"></path><path d="M1274.8 1736.3L1198.8 1592.5L1193.8 1820.2Z" fill="#4154d5" stroke="#4154d5"></path><path d="M1034.9 1646.3L931.1 1512.5L908.1 1644.3Z" fill="#6ba3f5" stroke="#6ba3f5"></path><path d="M820.2 2211.8L867.1 2279.7L973.1 2140.8Z" fill="#4365dd" stroke="#4365dd"></path><path d="M867.1 2279.7L1126.9 2316.7L1028.9 2146.8Z" fill="#6ba3f5" stroke="#6ba3f5"></path><path d="M723.2 1845.2L635.4 2018L768.2 2003Z" fill="#6ba3f5" stroke="#6ba3f5"></path><path d="M820.2 2211.8L752.2 2306.7L867.1 2279.7Z" fill="#4a0eb3" stroke="#4a0eb3"></path><path d="M1379.6 2011L1440.6 1882.2L1283.8 1981Z" fill="#5185eb" stroke="#5185eb"></path><path d="M1274.8 1736.3L1391.6 1651.3L1198.8 1592.5Z" fill="#4154d5" stroke="#4154d5"></path><path d="M1338.6 2289.7L1396.6 2122.8L1244.8 2210.8Z" fill="#8ec0fc" stroke="#8ec0fc"></path><path d="M1244.8 2210.8L1396.6 2122.8L1283.8 1981Z" fill="#7cb2f9" stroke="#7cb2f9"></path><path d="M1379.6 2011L1495.5 1995L1440.6 1882.2Z" fill="#4875e5" stroke="#4875e5"></path><path d="M1051.9 1500.5L931.1 1512.5L1034.9 1646.3Z" fill="#8ec0fc" stroke="#8ec0fc"></path><path d="M908.1 1644.3L792.2 1550.5L820.2 1671.3Z" fill="#5d94f1" stroke="#5d94f1"></path><path d="M1198.8 1592.5L1051.9 1500.5L1034.9 1646.3Z" fill="#4365dd" stroke="#4365dd"></path><path d="M620.4 1742.3L599.4 1840.2L723.2 1845.2Z" fill="#6ba3f5" stroke="#6ba3f5"></path><path d="M723.2 1845.2L599.4 1840.2L635.4 2018Z" fill="#8ec0fc" stroke="#8ec0fc"></path><path d="M620.4 1742.3L723.2 1845.2L820.2 1671.3Z" fill="#462dc0" stroke="#462dc0"></path><path d="M931.1 1512.5L792.2 1550.5L908.1 1644.3Z" fill="#4a0eb3" stroke="#4a0eb3"></path><path d="M610.4 1555.5L620.4 1742.3L820.2 1671.3Z" fill="#4154d5" stroke="#4154d5"></path><path d="M1506.5 1747.3L1391.6 1651.3L1274.8 1736.3Z" fill="#7cb2f9" stroke="#7cb2f9"></path><path d="M1176.8 1374.6L1059.9 1406.6L1051.9 1500.5Z" fill="#4154d5" stroke="#4154d5"></path><path d="M1224.8 2441.5L1216.8 2344.7L1126.9 2316.7Z" fill="#7cb2f9" stroke="#7cb2f9"></path><path d="M1126.9 2316.7L1216.8 2344.7L1244.8 2210.8Z" fill="#6ba3f5" stroke="#6ba3f5"></path><path d="M1396.6 2122.8L1495.5 1995L1379.6 2011Z" fill="#5185eb" stroke="#5185eb"></path><path d="M1440.6 1882.2L1506.5 1747.3L1274.8 1736.3Z" fill="#4154d5" stroke="#4154d5"></path><path d="M642.4 2255.7L752.2 2306.7L820.2 2211.8Z" fill="#462dc0" stroke="#462dc0"></path><path d="M867.1 2279.7L883.1 2442.5L1126.9 2316.7Z" fill="#4154d5" stroke="#4154d5"></path><path d="M1216.8 2344.7L1338.6 2289.7L1244.8 2210.8Z" fill="#4875e5" stroke="#4875e5"></path><path d="M1396.6 2122.8L1548.5 2143.8L1495.5 1995Z" fill="#4242cb" stroke="#4242cb"></path><path d="M441.5 2014L586.4 2120.8L635.4 2018Z" fill="#4a0eb3" stroke="#4a0eb3"></path><path d="M635.4 2018L586.4 2120.8L768.2 2003Z" fill="#6ba3f5" stroke="#6ba3f5"></path><path d="M1495.5 1995L1530.5 1841.2L1440.6 1882.2Z" fill="#4875e5" stroke="#4875e5"></path><path d="M586.4 2120.8L642.4 2255.7L820.2 2211.8Z" fill="#4242cb" stroke="#4242cb"></path><path d="M1530.5 1841.2L1506.5 1747.3L1440.6 1882.2Z" fill="#8ec0fc" stroke="#8ec0fc"></path><path d="M1051.9 1500.5L950.1 1420.6L931.1 1512.5Z" fill="#4875e5" stroke="#4875e5"></path><path d="M931.1 1512.5L950.1 1420.6L792.2 1550.5Z" fill="#462dc0" stroke="#462dc0"></path><path d="M1059.9 1406.6L950.1 1420.6L1051.9 1500.5Z" fill="#5d94f1" stroke="#5d94f1"></path><path d="M1176.8 1374.6L1051.9 1500.5L1198.8 1592.5Z" fill="#5185eb" stroke="#5185eb"></path><path d="M804.2 2478.5L883.1 2442.5L752.2 2306.7Z" fill="#8ec0fc" stroke="#8ec0fc"></path><path d="M752.2 2306.7L883.1 2442.5L867.1 2279.7Z" fill="#5185eb" stroke="#5185eb"></path><path d="M1092.9 2502.5L1224.8 2441.5L1126.9 2316.7Z" fill="#4242cb" stroke="#4242cb"></path><path d="M1216.8 2344.7L1341.6 2412.5L1338.6 2289.7Z" fill="#462dc0" stroke="#462dc0"></path><path d="M1596.5 2309.7L1548.5 2143.8L1338.6 2289.7Z" fill="#4365dd" stroke="#4365dd"></path><path d="M1338.6 2289.7L1548.5 2143.8L1396.6 2122.8Z" fill="#4242cb" stroke="#4242cb"></path><path d="M1495.5 1995L1644.3 1982L1530.5 1841.2Z" fill="#4a0eb3" stroke="#4a0eb3"></path><path d="M716.2 1435.6L610.4 1555.5L792.2 1550.5Z" fill="#4a0eb3" stroke="#4a0eb3"></path><path d="M792.2 1550.5L610.4 1555.5L820.2 1671.3Z" fill="#5185eb" stroke="#5185eb"></path><path d="M465.5 1736.3L460.5 1851.2L599.4 1840.2Z" fill="#4242cb" stroke="#4242cb"></path><path d="M599.4 1840.2L441.5 2014L635.4 2018Z" fill="#8ec0fc" stroke="#8ec0fc"></path><path d="M1516.5 1486.5L1403.6 1495.5L1391.6 1651.3Z" fill="#4875e5" stroke="#4875e5"></path><path d="M1391.6 1651.3L1403.6 1495.5L1198.8 1592.5Z" fill="#4875e5" stroke="#4875e5"></path><path d="M1343.6 1401.6L1176.8 1374.6L1198.8 1592.5Z" fill="#4875e5" stroke="#4875e5"></path><path d="M1059.9 1406.6L931.1 1261.8L950.1 1420.6Z" fill="#7cb2f9" stroke="#7cb2f9"></path><path d="M1224.8 2441.5L1341.6 2412.5L1216.8 2344.7Z" fill="#5185eb" stroke="#5185eb"></path><path d="M465.5 1736.3L599.4 1840.2L620.4 1742.3Z" fill="#4a0eb3" stroke="#4a0eb3"></path><path d="M586.4 2120.8L458.5 2110.8L642.4 2255.7Z" fill="#4875e5" stroke="#4875e5"></path><path d="M883.1 2442.5L1092.9 2502.5L1126.9 2316.7Z" fill="#8ec0fc" stroke="#8ec0fc"></path><path d="M1224.8 2441.5L1235.8 2583.4L1341.6 2412.5Z" fill="#5185eb" stroke="#5185eb"></path><path d="M931.1 1261.8L716.2 1435.6L950.1 1420.6Z" fill="#5185eb" stroke="#5185eb"></path><path d="M950.1 1420.6L716.2 1435.6L792.2 1550.5Z" fill="#4a0eb3" stroke="#4a0eb3"></path><path d="M622.4 2453.5L804.2 2478.5L752.2 2306.7Z" fill="#5d94f1" stroke="#5d94f1"></path><path d="M883.1 2442.5L957.1 2606.4L1092.9 2502.5Z" fill="#462dc0" stroke="#462dc0"></path><path d="M460.5 1851.2L441.5 2014L599.4 1840.2Z" fill="#4a0eb3" stroke="#4a0eb3"></path><path d="M642.4 2255.7L622.4 2453.5L752.2 2306.7Z" fill="#6ba3f5" stroke="#6ba3f5"></path><path d="M484.5 1566.5L465.5 1736.3L620.4 1742.3Z" fill="#5185eb" stroke="#5185eb"></path><path d="M313.7 1863.2L358.7 2058L441.5 2014Z" fill="#5185eb" stroke="#5185eb"></path><path d="M441.5 2014L458.5 2110.8L586.4 2120.8Z" fill="#6ba3f5" stroke="#6ba3f5"></path><path d="M1403.6 1495.5L1343.6 1401.6L1198.8 1592.5Z" fill="#5185eb" stroke="#5185eb"></path><path d="M1548.5 2143.8L1644.3 1982L1495.5 1995Z" fill="#8ec0fc" stroke="#8ec0fc"></path><path d="M1530.5 1841.2L1695.3 1846.2L1506.5 1747.3Z" fill="#4365dd" stroke="#4365dd"></path><path d="M1506.5 1747.3L1516.5 1486.5L1391.6 1651.3Z" fill="#6ba3f5" stroke="#6ba3f5"></path><path d="M610.4 1555.5L484.5 1566.5L620.4 1742.3Z" fill="#5d94f1" stroke="#5d94f1"></path><path d="M561.4 1387.6L484.5 1566.5L610.4 1555.5Z" fill="#5d94f1" stroke="#5d94f1"></path><path d="M1735.3 1652.3L1516.5 1486.5L1506.5 1747.3Z" fill="#4365dd" stroke="#4365dd"></path><path d="M1403.6 1495.5L1552.5 1392.6L1343.6 1401.6Z" fill="#6ba3f5" stroke="#6ba3f5"></path><path d="M460.5 2352.7L622.4 2453.5L642.4 2255.7Z" fill="#6ba3f5" stroke="#6ba3f5"></path><path d="M1644.3 1982L1695.3 1846.2L1530.5 1841.2Z" fill="#5185eb" stroke="#5185eb"></path><path d="M1218.8 1234.8L1176.8 1374.6L1360.6 1274.8Z" fill="#5d94f1" stroke="#5d94f1"></path><path d="M1218.8 1234.8L1067.9 1256.8L1176.8 1374.6Z" fill="#4a0eb3" stroke="#4a0eb3"></path><path d="M1176.8 1374.6L1067.9 1256.8L1059.9 1406.6Z" fill="#4365dd" stroke="#4365dd"></path><path d="M1067.9 1256.8L931.1 1261.8L1059.9 1406.6Z" fill="#7cb2f9" stroke="#7cb2f9"></path><path d="M716.2 1435.6L561.4 1387.6L610.4 1555.5Z" fill="#5d94f1" stroke="#5d94f1"></path><path d="M1547.5 2446.5L1596.5 2309.7L1338.6 2289.7Z" fill="#5d94f1" stroke="#5d94f1"></path><path d="M1548.5 2143.8L1710.3 2158.8L1644.3 1982Z" fill="#4875e5" stroke="#4875e5"></path><path d="M1644.3 1982L1873.2 1976L1695.3 1846.2Z" fill="#462dc0" stroke="#462dc0"></path><path d="M819.2 2631.4L957.1 2606.4L804.2 2478.5Z" fill="#462dc0" stroke="#462dc0"></path><path d="M804.2 2478.5L957.1 2606.4L883.1 2442.5Z" fill="#4a0eb3" stroke="#4a0eb3"></path><path d="M1092.9 2502.5L1235.8 2583.4L1224.8 2441.5Z" fill="#4365dd" stroke="#4365dd"></path><path d="M1341.6 2412.5L1547.5 2446.5L1338.6 2289.7Z" fill="#4365dd" stroke="#4365dd"></path><path d="M313.7 1863.2L441.5 2014L460.5 1851.2Z" fill="#7cb2f9" stroke="#7cb2f9"></path><path d="M441.5 2014L358.7 2058L458.5 2110.8Z" fill="#4242cb" stroke="#4242cb"></path><path d="M458.5 2110.8L460.5 2352.7L642.4 2255.7Z" fill="#5d94f1" stroke="#5d94f1"></path><path d="M313.7 1863.2L460.5 1851.2L465.5 1736.3Z" fill="#4242cb" stroke="#4242cb"></path><path d="M1110.9 2643.4L1235.8 2583.4L1092.9 2502.5Z" fill="#7cb2f9" stroke="#7cb2f9"></path><path d="M1596.5 2309.7L1633.3 2276.7L1548.5 2143.8Z" fill="#5d94f1" stroke="#5d94f1"></path><path d="M350.7 2261.7L460.5 2352.7L458.5 2110.8Z" fill="#5d94f1" stroke="#5d94f1"></path><path d="M578.4 1254.8L561.4 1387.6L716.2 1435.6Z" fill="#8ec0fc" stroke="#8ec0fc"></path><path d="M1633.3 2276.7L1710.3 2158.8L1548.5 2143.8Z" fill="#8ec0fc" stroke="#8ec0fc"></path><path d="M1360.6 1274.8L1176.8 1374.6L1343.6 1401.6Z" fill="#462dc0" stroke="#462dc0"></path><path d="M885.1 1131.9L721.2 1201.8L931.1 1261.8Z" fill="#8ec0fc" stroke="#8ec0fc"></path><path d="M957.1 2606.4L1110.9 2643.4L1092.9 2502.5Z" fill="#5d94f1" stroke="#5d94f1"></path><path d="M287.7 1671.3L465.5 1736.3L484.5 1566.5Z" fill="#4a0eb3" stroke="#4a0eb3"></path><path d="M287.7 1671.3L313.7 1863.2L465.5 1736.3Z" fill="#5185eb" stroke="#5185eb"></path><path d="M1376.6 2595.4L1547.5 2446.5L1341.6 2412.5Z" fill="#4365dd" stroke="#4365dd"></path><path d="M1596.5 2309.7L1724.3 2461.5L1633.3 2276.7Z" fill="#4365dd" stroke="#4365dd"></path><path d="M1873.2 2338.7L1791.2 2101.8L1710.3 2158.8Z" fill="#4242cb" stroke="#4242cb"></path><path d="M1376.6 2595.4L1341.6 2412.5L1235.8 2583.4Z" fill="#5d94f1" stroke="#5d94f1"></path><path d="M1552.5 1392.6L1360.6 1274.8L1343.6 1401.6Z" fill="#5d94f1" stroke="#5d94f1"></path><path d="M611.4 2602.4L804.2 2478.5L622.4 2453.5Z" fill="#5185eb" stroke="#5185eb"></path><path d="M611.4 2602.4L819.2 2631.4L804.2 2478.5Z" fill="#4242cb" stroke="#4242cb"></path><path d="M957.1 2606.4L979.1 2710.2L1110.9 2643.4Z" fill="#4a0eb3" stroke="#4a0eb3"></path><path d="M1649.3 1439.6L1552.5 1392.6L1516.5 1486.5Z" fill="#4875e5" stroke="#4875e5"></path><path d="M1516.5 1486.5L1552.5 1392.6L1403.6 1495.5Z" fill="#6ba3f5" stroke="#6ba3f5"></path><path d="M1345.6 2790.2L1376.6 2595.4L1235.8 2583.4Z" fill="#4154d5" stroke="#4154d5"></path><path d="M1818.2 1643.3L1735.3 1652.3L1891.2 1818.2Z" fill="#462dc0" stroke="#462dc0"></path><path d="M1695.3 1846.2L1735.3 1652.3L1506.5 1747.3Z" fill="#5d94f1" stroke="#5d94f1"></path><path d="M278.7 2149.8L458.5 2110.8L358.7 2058Z" fill="#4242cb" stroke="#4242cb"></path><path d="M278.7 2149.8L350.7 2261.7L458.5 2110.8Z" fill="#6ba3f5" stroke="#6ba3f5"></path><path d="M561.4 1387.6L446.5 1428.6L484.5 1566.5Z" fill="#5d94f1" stroke="#5d94f1"></path><path d="M266.7 2409.5L469.5 2468.5L460.5 2352.7Z" fill="#5d94f1" stroke="#5d94f1"></path><path d="M460.5 2352.7L469.5 2468.5L622.4 2453.5Z" fill="#4875e5" stroke="#4875e5"></path><path d="M1873.2 2338.7L1710.3 2158.8L1633.3 2276.7Z" fill="#5185eb" stroke="#5185eb"></path><path d="M1710.3 2158.8L1791.2 2101.8L1644.3 1982Z" fill="#4154d5" stroke="#4154d5"></path><path d="M803.2 2760.2L979.1 2710.2L819.2 2631.4Z" fill="#7cb2f9" stroke="#7cb2f9"></path><path d="M819.2 2631.4L979.1 2710.2L957.1 2606.4Z" fill="#5185eb" stroke="#5185eb"></path><path d="M1110.9 2643.4L1240.8 2821.2L1235.8 2583.4Z" fill="#4875e5" stroke="#4875e5"></path><path d="M172.8 2100.8L278.7 2149.8L358.7 2058Z" fill="#5d94f1" stroke="#5d94f1"></path><path d="M350.7 2579.4L486.5 2606.4L469.5 2468.5Z" fill="#5d94f1" stroke="#5d94f1"></path><path d="M314.7 1554.5L287.7 1671.3L484.5 1566.5Z" fill="#4a0eb3" stroke="#4a0eb3"></path><path d="M313.7 1863.2L172.8 2100.8L358.7 2058Z" fill="#4875e5" stroke="#4875e5"></path><path d="M1709.3 1526.5L1649.3 1439.6L1516.5 1486.5Z" fill="#4154d5" stroke="#4154d5"></path><path d="M1510.5 1207.8L1345.6 1122.9L1360.6 1274.8Z" fill="#7cb2f9" stroke="#7cb2f9"></path><path d="M1735.3 1652.3L1709.3 1526.5L1516.5 1486.5Z" fill="#5d94f1" stroke="#5d94f1"></path><path d="M885.1 1131.9L931.1 1261.8L1067.9 1256.8Z" fill="#4875e5" stroke="#4875e5"></path><path d="M931.1 1261.8L721.2 1201.8L716.2 1435.6Z" fill="#4365dd" stroke="#4365dd"></path><path d="M561.4 1387.6L436.5 1245.8L446.5 1428.6Z" fill="#6ba3f5" stroke="#6ba3f5"></path><path d="M469.5 2468.5L611.4 2602.4L622.4 2453.5Z" fill="#6ba3f5" stroke="#6ba3f5"></path><path d="M446.5 1428.6L314.7 1554.5L484.5 1566.5Z" fill="#4154d5" stroke="#4154d5"></path><path d="M1067.9 1029.9L1067.9 1256.8L1218.8 1234.8Z" fill="#4a0eb3" stroke="#4a0eb3"></path><path d="M1067.9 1029.9L885.1 1131.9L1067.9 1256.8Z" fill="#5185eb" stroke="#5185eb"></path><path d="M721.2 1201.8L578.4 1254.8L716.2 1435.6Z" fill="#4a0eb3" stroke="#4a0eb3"></path><path d="M446.5 1428.6L302.7 1375.6L314.7 1554.5Z" fill="#5d94f1" stroke="#5d94f1"></path><path d="M655.4 1090.9L578.4 1254.8L721.2 1201.8Z" fill="#4875e5" stroke="#4875e5"></path><path d="M1891.2 1818.2L1735.3 1652.3L1695.3 1846.2Z" fill="#4a0eb3" stroke="#4a0eb3"></path><path d="M1735.3 1652.3L1818.2 1643.3L1709.3 1526.5Z" fill="#4a0eb3" stroke="#4a0eb3"></path><path d="M1709.3 1526.5L1804.2 1353.6L1649.3 1439.6Z" fill="#4365dd" stroke="#4365dd"></path><path d="M1791.2 2101.8L1873.2 1976L1644.3 1982Z" fill="#8ec0fc" stroke="#8ec0fc"></path><path d="M864.1 2875.1L1068.9 2785.2L979.1 2710.2Z" fill="#4365dd" stroke="#4365dd"></path><path d="M979.1 2710.2L1068.9 2785.2L1110.9 2643.4Z" fill="#4a0eb3" stroke="#4a0eb3"></path><path d="M885.1 1131.9L753.2 1114.9L721.2 1201.8Z" fill="#6ba3f5" stroke="#6ba3f5"></path><path d="M611.4 2602.4L803.2 2760.2L819.2 2631.4Z" fill="#6ba3f5" stroke="#6ba3f5"></path><path d="M1510.5 1207.8L1360.6 1274.8L1552.5 1392.6Z" fill="#4875e5" stroke="#4875e5"></path><path d="M1360.6 1274.8L1345.6 1122.9L1218.8 1234.8Z" fill="#4365dd" stroke="#4365dd"></path><path d="M885.1 1131.9L934.1 895.1L753.2 1114.9Z" fill="#7cb2f9" stroke="#7cb2f9"></path><path d="M1666.3 1191.8L1510.5 1207.8L1552.5 1392.6Z" fill="#4242cb" stroke="#4242cb"></path><path d="M1666.3 1191.8L1552.5 1392.6L1649.3 1439.6Z" fill="#4242cb" stroke="#4242cb"></path><path d="M1873.2 1976L1891.2 1818.2L1695.3 1846.2Z" fill="#7cb2f9" stroke="#7cb2f9"></path><path d="M266.7 2409.5L460.5 2352.7L350.7 2261.7Z" fill="#8ec0fc" stroke="#8ec0fc"></path><path d="M469.5 2468.5L486.5 2606.4L611.4 2602.4Z" fill="#6ba3f5" stroke="#6ba3f5"></path><path d="M611.4 2602.4L563.4 2804.2L803.2 2760.2Z" fill="#4154d5" stroke="#4154d5"></path><path d="M1592.5 2607.4L1724.3 2461.5L1547.5 2446.5Z" fill="#4875e5" stroke="#4875e5"></path><path d="M1547.5 2446.5L1724.3 2461.5L1596.5 2309.7Z" fill="#4365dd" stroke="#4365dd"></path><path d="M2000 2164.8L2000 1954L1873.2 1976Z" fill="#4154d5" stroke="#4154d5"></path><path d="M1592.5 2607.4L1547.5 2446.5L1376.6 2595.4Z" fill="#4154d5" stroke="#4154d5"></path><path d="M124.8 1859.2L313.7 1863.2L287.7 1671.3Z" fill="#4a0eb3" stroke="#4a0eb3"></path><path d="M96.8 1966L172.8 2100.8L313.7 1863.2Z" fill="#5185eb" stroke="#5185eb"></path><path d="M197.8 2294.7L266.7 2409.5L350.7 2261.7Z" fill="#8ec0fc" stroke="#8ec0fc"></path><path d="M1533.5 2764.2L1592.5 2607.4L1376.6 2595.4Z" fill="#5d94f1" stroke="#5d94f1"></path><path d="M1440.6 901.1L1239.8 1065.9L1345.6 1122.9Z" fill="#7cb2f9" stroke="#7cb2f9"></path><path d="M1345.6 1122.9L1239.8 1065.9L1218.8 1234.8Z" fill="#4365dd" stroke="#4365dd"></path><path d="M1239.8 1065.9L1067.9 1029.9L1218.8 1234.8Z" fill="#4875e5" stroke="#4875e5"></path><path d="M197.8 2294.7L350.7 2261.7L278.7 2149.8Z" fill="#4242cb" stroke="#4242cb"></path><path d="M655.4 1090.9L436.5 1245.8L578.4 1254.8Z" fill="#4a0eb3" stroke="#4a0eb3"></path><path d="M578.4 1254.8L436.5 1245.8L561.4 1387.6Z" fill="#8ec0fc" stroke="#8ec0fc"></path><path d="M122.8 1634.3L287.7 1671.3L148.8 1543.5Z" fill="#4154d5" stroke="#4154d5"></path><path d="M122.8 1634.3L124.8 1859.2L287.7 1671.3Z" fill="#4365dd" stroke="#4365dd"></path><path d="M172.8 2100.8L197.8 2294.7L278.7 2149.8Z" fill="#4a0eb3" stroke="#4a0eb3"></path><path d="M0 2198.8L197.8 2294.7L172.8 2100.8Z" fill="#6ba3f5" stroke="#6ba3f5"></path><path d="M436.5 1245.8L302.7 1375.6L446.5 1428.6Z" fill="#4365dd" stroke="#4365dd"></path><path d="M1023.9 2981.1L1240.8 2821.2L1068.9 2785.2Z" fill="#4365dd" stroke="#4365dd"></path><path d="M1068.9 2785.2L1240.8 2821.2L1110.9 2643.4Z" fill="#4242cb" stroke="#4242cb"></path><path d="M1240.8 2821.2L1345.6 2790.2L1235.8 2583.4Z" fill="#7cb2f9" stroke="#7cb2f9"></path><path d="M656.4 959.1L655.4 1090.9L753.2 1114.9Z" fill="#5d94f1" stroke="#5d94f1"></path><path d="M753.2 1114.9L655.4 1090.9L721.2 1201.8Z" fill="#462dc0" stroke="#462dc0"></path><path d="M2000 1586.5L1847.2 1482.5L1818.2 1643.3Z" fill="#4154d5" stroke="#4154d5"></path><path d="M1818.2 1643.3L1847.2 1482.5L1709.3 1526.5Z" fill="#7cb2f9" stroke="#7cb2f9"></path><path d="M124.8 1859.2L96.8 1966L313.7 1863.2Z" fill="#5185eb" stroke="#5185eb"></path><path d="M1839.2 2420.5L1633.3 2276.7L1724.3 2461.5Z" fill="#5d94f1" stroke="#5d94f1"></path><path d="M1839.2 2420.5L1873.2 2338.7L1633.3 2276.7Z" fill="#4242cb" stroke="#4242cb"></path><path d="M1873.2 1976L2000 1850.2L1891.2 1818.2Z" fill="#4242cb" stroke="#4242cb"></path><path d="M266.7 2409.5L350.7 2579.4L469.5 2468.5Z" fill="#462dc0" stroke="#462dc0"></path><path d="M718.2 2872.1L864.1 2875.1L803.2 2760.2Z" fill="#4a0eb3" stroke="#4a0eb3"></path><path d="M149.8 2600.4L350.7 2579.4L266.7 2409.5Z" fill="#8ec0fc" stroke="#8ec0fc"></path><path d="M1741.3 2612.4L1839.2 2420.5L1724.3 2461.5Z" fill="#4365dd" stroke="#4365dd"></path><path d="M148.8 1543.5L287.7 1671.3L314.7 1554.5Z" fill="#7cb2f9" stroke="#7cb2f9"></path><path d="M124.8 1859.2L0 1837.2L96.8 1966Z" fill="#7cb2f9" stroke="#7cb2f9"></path><path d="M563.4 2804.2L611.4 2602.4L486.5 2606.4Z" fill="#4365dd" stroke="#4365dd"></path><path d="M803.2 2760.2L864.1 2875.1L979.1 2710.2Z" fill="#462dc0" stroke="#462dc0"></path><path d="M302.7 1375.6L148.8 1543.5L314.7 1554.5Z" fill="#462dc0" stroke="#462dc0"></path><path d="M1847.2 1482.5L1804.2 1353.6L1709.3 1526.5Z" fill="#7cb2f9" stroke="#7cb2f9"></path><path d="M1510.5 1207.8L1529.5 1055.9L1345.6 1122.9Z" fill="#4242cb" stroke="#4242cb"></path><path d="M2000 2164.8L1873.2 1976L1791.2 2101.8Z" fill="#4365dd" stroke="#4365dd"></path><path d="M1891.2 1818.2L2000 1733.3L1818.2 1643.3Z" fill="#5185eb" stroke="#5185eb"></path><path d="M2000 1954L2000 1850.2L1873.2 1976Z" fill="#4a0eb3" stroke="#4a0eb3"></path><path d="M2000 1431.6L1873.2 1282.8L1804.2 1353.6Z" fill="#7cb2f9" stroke="#7cb2f9"></path><path d="M1804.2 1353.6L1666.3 1191.8L1649.3 1439.6Z" fill="#4a0eb3" stroke="#4a0eb3"></path><path d="M1502.5 2908.1L1533.5 2764.2L1345.6 2790.2Z" fill="#4154d5" stroke="#4154d5"></path><path d="M1345.6 2790.2L1533.5 2764.2L1376.6 2595.4Z" fill="#4242cb" stroke="#4242cb"></path><path d="M1592.5 2607.4L1741.3 2612.4L1724.3 2461.5Z" fill="#5d94f1" stroke="#5d94f1"></path><path d="M1738.3 2751.2L1741.3 2612.4L1592.5 2607.4Z" fill="#4a0eb3" stroke="#4a0eb3"></path><path d="M2000 1850.2L2000 1733.3L1891.2 1818.2Z" fill="#6ba3f5" stroke="#6ba3f5"></path><path d="M430.5 2780.2L563.4 2804.2L486.5 2606.4Z" fill="#4365dd" stroke="#4365dd"></path><path d="M563.4 2804.2L718.2 2872.1L803.2 2760.2Z" fill="#4875e5" stroke="#4875e5"></path><path d="M1873.2 2338.7L2000 2164.8L1791.2 2101.8Z" fill="#7cb2f9" stroke="#7cb2f9"></path><path d="M2000 2336.7L2000 2164.8L1873.2 2338.7Z" fill="#5185eb" stroke="#5185eb"></path><path d="M2000 2336.7L1873.2 2338.7L2000 2442.5Z" fill="#4154d5" stroke="#4154d5"></path><path d="M1666.3 1191.8L1529.5 1055.9L1510.5 1207.8Z" fill="#6ba3f5" stroke="#6ba3f5"></path><path d="M1183.8 885.1L1113.9 894.1L1067.9 1029.9Z" fill="#5185eb" stroke="#5185eb"></path><path d="M2000 1733.3L2000 1586.5L1818.2 1643.3Z" fill="#4a0eb3" stroke="#4a0eb3"></path><path d="M0 1688.3L124.8 1859.2L122.8 1634.3Z" fill="#462dc0" stroke="#462dc0"></path><path d="M0 1688.3L0 1837.2L124.8 1859.2Z" fill="#4875e5" stroke="#4875e5"></path><path d="M96.8 1966L0 2040L172.8 2100.8Z" fill="#4154d5" stroke="#4154d5"></path><path d="M0 1837.2L0 2040L96.8 1966Z" fill="#4242cb" stroke="#4242cb"></path><path d="M197.8 2294.7L127.8 2450.5L266.7 2409.5Z" fill="#5185eb" stroke="#5185eb"></path><path d="M1183.8 885.1L1067.9 1029.9L1239.8 1065.9Z" fill="#4154d5" stroke="#4154d5"></path><path d="M1067.9 1029.9L934.1 895.1L885.1 1131.9Z" fill="#5d94f1" stroke="#5d94f1"></path><path d="M1113.9 894.1L934.1 895.1L1067.9 1029.9Z" fill="#5185eb" stroke="#5185eb"></path><path d="M737.2 884.1L656.4 959.1L753.2 1114.9Z" fill="#4875e5" stroke="#4875e5"></path><path d="M416.5 1017.9L346.7 1124.9L436.5 1245.8Z" fill="#5d94f1" stroke="#5d94f1"></path><path d="M142.8 1242.8L117.8 1399.6L302.7 1375.6Z" fill="#6ba3f5" stroke="#6ba3f5"></path><path d="M302.7 1375.6L117.8 1399.6L148.8 1543.5Z" fill="#5d94f1" stroke="#5d94f1"></path><path d="M348.7 2722.2L486.5 2606.4L350.7 2579.4Z" fill="#4365dd" stroke="#4365dd"></path><path d="M348.7 2722.2L430.5 2780.2L486.5 2606.4Z" fill="#6ba3f5" stroke="#6ba3f5"></path><path d="M563.4 2804.2L601.4 2880.1L718.2 2872.1Z" fill="#4365dd" stroke="#4365dd"></path><path d="M0 2338.7L127.8 2450.5L197.8 2294.7Z" fill="#4242cb" stroke="#4242cb"></path><path d="M456.5 2871.1L601.4 2880.1L563.4 2804.2Z" fill="#5d94f1" stroke="#5d94f1"></path><path d="M976.1 3056.9L1023.9 2981.1L864.1 2875.1Z" fill="#4875e5" stroke="#4875e5"></path><path d="M149.8 2600.4L348.7 2722.2L350.7 2579.4Z" fill="#4154d5" stroke="#4154d5"></path><path d="M2000 2442.5L1873.2 2338.7L1839.2 2420.5Z" fill="#7cb2f9" stroke="#7cb2f9"></path><path d="M976.1 3056.9L864.1 2875.1L748.2 3082.9Z" fill="#4365dd" stroke="#4365dd"></path><path d="M864.1 2875.1L1023.9 2981.1L1068.9 2785.2Z" fill="#4875e5" stroke="#4875e5"></path><path d="M1240.8 2821.2L1272.8 2954.1L1345.6 2790.2Z" fill="#4154d5" stroke="#4154d5"></path><path d="M1023.9 2981.1L1272.8 2954.1L1240.8 2821.2Z" fill="#5d94f1" stroke="#5d94f1"></path><path d="M1440.6 901.1L1183.8 885.1L1239.8 1065.9Z" fill="#4154d5" stroke="#4154d5"></path><path d="M1113.9 894.1L933.1 798.2L934.1 895.1Z" fill="#4242cb" stroke="#4242cb"></path><path d="M258.7 1190.8L302.7 1375.6L436.5 1245.8Z" fill="#8ec0fc" stroke="#8ec0fc"></path><path d="M0 1579.5L0 1688.3L122.8 1634.3Z" fill="#4365dd" stroke="#4365dd"></path><path d="M416.5 1017.9L436.5 1245.8L655.4 1090.9Z" fill="#5185eb" stroke="#5185eb"></path><path d="M0 1579.5L122.8 1634.3L148.8 1543.5Z" fill="#7cb2f9" stroke="#7cb2f9"></path><path d="M1804.2 1353.6L1873.2 1282.8L1666.3 1191.8Z" fill="#5d94f1" stroke="#5d94f1"></path><path d="M1666.3 1191.8L1740.3 1107.9L1529.5 1055.9Z" fill="#462dc0" stroke="#462dc0"></path><path d="M2000 1431.6L1804.2 1353.6L1847.2 1482.5Z" fill="#6ba3f5" stroke="#6ba3f5"></path><path d="M0 2040L0 2198.8L172.8 2100.8Z" fill="#4154d5" stroke="#4154d5"></path><path d="M346.7 1124.9L258.7 1190.8L436.5 1245.8Z" fill="#4154d5" stroke="#4154d5"></path><path d="M1272.8 2954.1L1388.6 2937.1L1345.6 2790.2Z" fill="#7cb2f9" stroke="#7cb2f9"></path><path d="M1817.2 2748.2L1845.2 2643.4L1741.3 2612.4Z" fill="#4875e5" stroke="#4875e5"></path><path d="M1738.3 2751.2L1592.5 2607.4L1533.5 2764.2Z" fill="#6ba3f5" stroke="#6ba3f5"></path><path d="M1741.3 2612.4L1845.2 2643.4L1839.2 2420.5Z" fill="#4a0eb3" stroke="#4a0eb3"></path><path d="M1873.2 1282.8L1740.3 1107.9L1666.3 1191.8Z" fill="#4154d5" stroke="#4154d5"></path><path d="M1529.5 1055.9L1440.6 901.1L1345.6 1122.9Z" fill="#4154d5" stroke="#4154d5"></path><path d="M934.1 895.1L737.2 884.1L753.2 1114.9Z" fill="#4a0eb3" stroke="#4a0eb3"></path><path d="M656.4 959.1L416.5 1017.9L655.4 1090.9Z" fill="#4a0eb3" stroke="#4a0eb3"></path><path d="M933.1 798.2L737.2 884.1L934.1 895.1Z" fill="#4242cb" stroke="#4242cb"></path><path d="M1677.3 2952.1L1738.3 2751.2L1533.5 2764.2Z" fill="#7cb2f9" stroke="#7cb2f9"></path><path d="M1388.6 2937.1L1502.5 2908.1L1345.6 2790.2Z" fill="#4875e5" stroke="#4875e5"></path><path d="M0 1424.6L0 1579.5L148.8 1543.5Z" fill="#8ec0fc" stroke="#8ec0fc"></path><path d="M2000 1586.5L2000 1431.6L1847.2 1482.5Z" fill="#462dc0" stroke="#462dc0"></path><path d="M1873.2 1282.8L1796.2 1026.9L1740.3 1107.9Z" fill="#4154d5" stroke="#4154d5"></path><path d="M1845.2 2643.4L2000 2442.5L1839.2 2420.5Z" fill="#4a0eb3" stroke="#4a0eb3"></path><path d="M429.5 917.1L416.5 1017.9L656.4 959.1Z" fill="#4875e5" stroke="#4875e5"></path><path d="M346.7 1124.9L143.8 1037.9L258.7 1190.8Z" fill="#4242cb" stroke="#4242cb"></path><path d="M430.5 2780.2L456.5 2871.1L563.4 2804.2Z" fill="#8ec0fc" stroke="#8ec0fc"></path><path d="M748.2 3082.9L864.1 2875.1L718.2 2872.1Z" fill="#8ec0fc" stroke="#8ec0fc"></path><path d="M250.7 2882.1L456.5 2871.1L430.5 2780.2Z" fill="#4875e5" stroke="#4875e5"></path><path d="M250.7 2882.1L430.5 2780.2L348.7 2722.2Z" fill="#5185eb" stroke="#5185eb"></path><path d="M1538.5 915.1L1440.6 901.1L1529.5 1055.9Z" fill="#4242cb" stroke="#4242cb"></path><path d="M0 2671.4L149.8 2600.4L127.8 2450.5Z" fill="#4a0eb3" stroke="#4a0eb3"></path><path d="M127.8 2450.5L149.8 2600.4L266.7 2409.5Z" fill="#5d94f1" stroke="#5d94f1"></path><path d="M0 2198.8L0 2338.7L197.8 2294.7Z" fill="#5d94f1" stroke="#5d94f1"></path><path d="M0 1219.8L142.8 1242.8L0 1089.9Z" fill="#4242cb" stroke="#4242cb"></path><path d="M258.7 1190.8L142.8 1242.8L302.7 1375.6Z" fill="#8ec0fc" stroke="#8ec0fc"></path><path d="M117.8 1399.6L0 1424.6L148.8 1543.5Z" fill="#4154d5" stroke="#4154d5"></path><path d="M748.2 3082.9L718.2 2872.1L582.4 3058.9Z" fill="#4242cb" stroke="#4242cb"></path><path d="M1023.9 2981.1L1104.9 3072.9L1272.8 2954.1Z" fill="#4a0eb3" stroke="#4a0eb3"></path><path d="M1272.8 2954.1L1385.6 3125.9L1388.6 2937.1Z" fill="#4a0eb3" stroke="#4a0eb3"></path><path d="M1529.5 3122.9L1677.3 2952.1L1502.5 2908.1Z" fill="#7cb2f9" stroke="#7cb2f9"></path><path d="M1723.3 901.1L1538.5 915.1L1529.5 1055.9Z" fill="#4365dd" stroke="#4365dd"></path><path d="M1186.8 782.2L1113.9 894.1L1183.8 885.1Z" fill="#4154d5" stroke="#4154d5"></path><path d="M1085.9 731.2L933.1 798.2L1113.9 894.1Z" fill="#4154d5" stroke="#4154d5"></path><path d="M469.5 827.2L429.5 917.1L656.4 959.1Z" fill="#4a0eb3" stroke="#4a0eb3"></path><path d="M1186.8 782.2L1183.8 885.1L1375.6 712.2Z" fill="#4154d5" stroke="#4154d5"></path><path d="M0 2338.7L0 2404.5L127.8 2450.5Z" fill="#4a0eb3" stroke="#4a0eb3"></path><path d="M1738.3 2751.2L1817.2 2748.2L1741.3 2612.4Z" fill="#462dc0" stroke="#462dc0"></path><path d="M1845.2 2643.4L2000 2654.4L2000 2442.5Z" fill="#6ba3f5" stroke="#6ba3f5"></path><path d="M1836.2 2875.1L1817.2 2748.2L1738.3 2751.2Z" fill="#6ba3f5" stroke="#6ba3f5"></path><path d="M976.1 3056.9L1104.9 3072.9L1023.9 2981.1Z" fill="#4154d5" stroke="#4154d5"></path><path d="M0 1219.8L0 1424.6L117.8 1399.6Z" fill="#4242cb" stroke="#4242cb"></path><path d="M1375.6 712.2L1183.8 885.1L1440.6 901.1Z" fill="#4154d5" stroke="#4154d5"></path><path d="M2000 1431.6L2000 1283.8L1873.2 1282.8Z" fill="#7cb2f9" stroke="#7cb2f9"></path><path d="M1740.3 1107.9L1723.3 901.1L1529.5 1055.9Z" fill="#8ec0fc" stroke="#8ec0fc"></path><path d="M632.4 805.2L656.4 959.1L737.2 884.1Z" fill="#4365dd" stroke="#4365dd"></path><path d="M416.5 1017.9L345.7 899.1L346.7 1124.9Z" fill="#8ec0fc" stroke="#8ec0fc"></path><path d="M2000 1061.9L1796.2 1026.9L1873.2 1282.8Z" fill="#4a0eb3" stroke="#4a0eb3"></path><path d="M582.4 3058.9L718.2 2872.1L601.4 2880.1Z" fill="#4a0eb3" stroke="#4a0eb3"></path><path d="M1060.9 3178.8L1204.8 3113.9L1104.9 3072.9Z" fill="#5185eb" stroke="#5185eb"></path><path d="M797.2 744.2L632.4 805.2L737.2 884.1Z" fill="#8ec0fc" stroke="#8ec0fc"></path><path d="M797.2 744.2L737.2 884.1L933.1 798.2Z" fill="#6ba3f5" stroke="#6ba3f5"></path><path d="M1223.8 611.4L1085.9 731.2L1186.8 782.2Z" fill="#4154d5" stroke="#4154d5"></path><path d="M1186.8 782.2L1085.9 731.2L1113.9 894.1Z" fill="#5d94f1" stroke="#5d94f1"></path><path d="M1060.9 3178.8L1104.9 3072.9L976.1 3056.9Z" fill="#4154d5" stroke="#4154d5"></path><path d="M1104.9 3072.9L1204.8 3113.9L1272.8 2954.1Z" fill="#5185eb" stroke="#5185eb"></path><path d="M1502.5 2908.1L1677.3 2952.1L1533.5 2764.2Z" fill="#6ba3f5" stroke="#6ba3f5"></path><path d="M742.2 647.4L797.2 744.2L964.1 558.4Z" fill="#4242cb" stroke="#4242cb"></path><path d="M1529.5 3122.9L1502.5 2908.1L1388.6 2937.1Z" fill="#7cb2f9" stroke="#7cb2f9"></path><path d="M2000 2722.2L1845.2 2643.4L1817.2 2748.2Z" fill="#8ec0fc" stroke="#8ec0fc"></path><path d="M2000 2722.2L2000 2654.4L1845.2 2643.4Z" fill="#4242cb" stroke="#4242cb"></path><path d="M445.5 3133.9L582.4 3058.9L456.5 2871.1Z" fill="#7cb2f9" stroke="#7cb2f9"></path><path d="M456.5 2871.1L582.4 3058.9L601.4 2880.1Z" fill="#8ec0fc" stroke="#8ec0fc"></path><path d="M117.8 2781.2L348.7 2722.2L149.8 2600.4Z" fill="#4875e5" stroke="#4875e5"></path><path d="M117.8 2781.2L250.7 2882.1L348.7 2722.2Z" fill="#5d94f1" stroke="#5d94f1"></path><path d="M601.4 663.4L469.5 827.2L632.4 805.2Z" fill="#5d94f1" stroke="#5d94f1"></path><path d="M632.4 805.2L469.5 827.2L656.4 959.1Z" fill="#6ba3f5" stroke="#6ba3f5"></path><path d="M429.5 917.1L345.7 899.1L416.5 1017.9Z" fill="#7cb2f9" stroke="#7cb2f9"></path><path d="M469.5 827.2L345.7 899.1L429.5 917.1Z" fill="#462dc0" stroke="#462dc0"></path><path d="M142.8 1242.8L0 1219.8L117.8 1399.6Z" fill="#6ba3f5" stroke="#6ba3f5"></path><path d="M1810.2 903.1L1723.3 901.1L1796.2 1026.9Z" fill="#4365dd" stroke="#4365dd"></path><path d="M1796.2 1026.9L1723.3 901.1L1740.3 1107.9Z" fill="#462dc0" stroke="#462dc0"></path><path d="M1510.5 728.2L1375.6 712.2L1440.6 901.1Z" fill="#7cb2f9" stroke="#7cb2f9"></path><path d="M1677.3 2952.1L1836.2 2875.1L1738.3 2751.2Z" fill="#8ec0fc" stroke="#8ec0fc"></path><path d="M1204.8 3113.9L1385.6 3125.9L1272.8 2954.1Z" fill="#8ec0fc" stroke="#8ec0fc"></path><path d="M1677.3 2952.1L1723.3 3087.9L1836.2 2875.1Z" fill="#4242cb" stroke="#4242cb"></path><path d="M0 2671.4L117.8 2781.2L149.8 2600.4Z" fill="#462dc0" stroke="#462dc0"></path><path d="M143.8 1037.9L142.8 1242.8L258.7 1190.8Z" fill="#6ba3f5" stroke="#6ba3f5"></path><path d="M889.1 3246.8L1060.9 3178.8L976.1 3056.9Z" fill="#4242cb" stroke="#4242cb"></path><path d="M1204.8 3113.9L1232.8 3237.8L1385.6 3125.9Z" fill="#4242cb" stroke="#4242cb"></path><path d="M889.1 3246.8L976.1 3056.9L748.2 3082.9Z" fill="#4a0eb3" stroke="#4a0eb3"></path><path d="M1836.2 2875.1L2000 2722.2L1817.2 2748.2Z" fill="#4242cb" stroke="#4242cb"></path><path d="M345.7 899.1L143.8 1037.9L346.7 1124.9Z" fill="#7cb2f9" stroke="#7cb2f9"></path><path d="M1510.5 728.2L1440.6 901.1L1538.5 915.1Z" fill="#4154d5" stroke="#4154d5"></path><path d="M964.1 558.4L797.2 744.2L933.1 798.2Z" fill="#8ec0fc" stroke="#8ec0fc"></path><path d="M0 2404.5L0 2671.4L127.8 2450.5Z" fill="#5d94f1" stroke="#5d94f1"></path><path d="M2000 976.1L1810.2 903.1L1796.2 1026.9Z" fill="#8ec0fc" stroke="#8ec0fc"></path><path d="M1727.3 812.2L1510.5 728.2L1538.5 915.1Z" fill="#4a0eb3" stroke="#4a0eb3"></path><path d="M1727.3 812.2L1538.5 915.1L1723.3 901.1Z" fill="#4365dd" stroke="#4365dd"></path><path d="M1589.5 3189.8L1529.5 3122.9L1392.6 3286.8Z" fill="#4154d5" stroke="#4154d5"></path><path d="M1385.6 3125.9L1529.5 3122.9L1388.6 2937.1Z" fill="#6ba3f5" stroke="#6ba3f5"></path><path d="M2000 1283.8L2000 1061.9L1873.2 1282.8Z" fill="#4365dd" stroke="#4365dd"></path><path d="M964.1 558.4L933.1 798.2L1085.9 731.2Z" fill="#7cb2f9" stroke="#7cb2f9"></path><path d="M797.2 744.2L742.2 647.4L632.4 805.2Z" fill="#462dc0" stroke="#462dc0"></path><path d="M469.5 827.2L365.7 763.2L345.7 899.1Z" fill="#4365dd" stroke="#4365dd"></path><path d="M1850.2 812.2L1727.3 812.2L1810.2 903.1Z" fill="#4242cb" stroke="#4242cb"></path><path d="M1810.2 903.1L1727.3 812.2L1723.3 901.1Z" fill="#4875e5" stroke="#4875e5"></path><path d="M1265.8 3333.6L1232.8 3237.8L1091.9 3427.6Z" fill="#4242cb" stroke="#4242cb"></path><path d="M1060.9 3178.8L1232.8 3237.8L1204.8 3113.9Z" fill="#462dc0" stroke="#462dc0"></path><path d="M632.4 3232.8L748.2 3082.9L582.4 3058.9Z" fill="#4a0eb3" stroke="#4a0eb3"></path><path d="M739.2 3267.8L889.1 3246.8L748.2 3082.9Z" fill="#4365dd" stroke="#4365dd"></path><path d="M0 876.1L0 1089.9L143.8 1037.9Z" fill="#7cb2f9" stroke="#7cb2f9"></path><path d="M143.8 1037.9L0 1089.9L142.8 1242.8Z" fill="#8ec0fc" stroke="#8ec0fc"></path><path d="M136.8 910.1L143.8 1037.9L345.7 899.1Z" fill="#4875e5" stroke="#4875e5"></path><path d="M1428.6 576.4L1375.6 712.2L1510.5 728.2Z" fill="#5d94f1" stroke="#5d94f1"></path><path d="M1428.6 576.4L1223.8 611.4L1375.6 712.2Z" fill="#5185eb" stroke="#5185eb"></path><path d="M1375.6 712.2L1223.8 611.4L1186.8 782.2Z" fill="#5d94f1" stroke="#5d94f1"></path><path d="M742.2 647.4L601.4 663.4L632.4 805.2Z" fill="#4154d5" stroke="#4154d5"></path><path d="M250.7 3101.9L456.5 2871.1L250.7 2882.1Z" fill="#8ec0fc" stroke="#8ec0fc"></path><path d="M250.7 3101.9L445.5 3133.9L456.5 2871.1Z" fill="#4a0eb3" stroke="#4a0eb3"></path><path d="M108.8 2981.1L250.7 2882.1L117.8 2781.2Z" fill="#4365dd" stroke="#4365dd"></path><path d="M601.4 663.4L365.7 763.2L469.5 827.2Z" fill="#462dc0" stroke="#462dc0"></path><path d="M1589.5 3189.8L1723.3 3087.9L1529.5 3122.9Z" fill="#5185eb" stroke="#5185eb"></path><path d="M1529.5 3122.9L1723.3 3087.9L1677.3 2952.1Z" fill="#5d94f1" stroke="#5d94f1"></path><path d="M1836.2 2875.1L2000 2979.1L2000 2722.2Z" fill="#462dc0" stroke="#462dc0"></path><path d="M1223.8 611.4L1033.9 573.4L1085.9 731.2Z" fill="#4875e5" stroke="#4875e5"></path><path d="M742.2 647.4L572.4 492.5L601.4 663.4Z" fill="#4365dd" stroke="#4365dd"></path><path d="M197.8 717.2L136.8 910.1L345.7 899.1Z" fill="#4154d5" stroke="#4154d5"></path><path d="M2000 1061.9L2000 976.1L1796.2 1026.9Z" fill="#462dc0" stroke="#462dc0"></path><path d="M0 2671.4L0 2816.2L117.8 2781.2Z" fill="#4365dd" stroke="#4365dd"></path><path d="M445.5 3133.9L632.4 3232.8L582.4 3058.9Z" fill="#462dc0" stroke="#462dc0"></path><path d="M632.4 3232.8L739.2 3267.8L748.2 3082.9Z" fill="#4154d5" stroke="#4154d5"></path><path d="M1265.8 3333.6L1392.6 3286.8L1232.8 3237.8Z" fill="#4242cb" stroke="#4242cb"></path><path d="M1075.9 515.5L964.1 558.4L1033.9 573.4Z" fill="#4242cb" stroke="#4242cb"></path><path d="M1033.9 573.4L964.1 558.4L1085.9 731.2Z" fill="#4365dd" stroke="#4365dd"></path><path d="M1392.6 3286.8L1529.5 3122.9L1385.6 3125.9Z" fill="#5185eb" stroke="#5185eb"></path><path d="M2000 976.1L1850.2 812.2L1810.2 903.1Z" fill="#4365dd" stroke="#4365dd"></path><path d="M1482.5 559.4L1428.6 576.4L1510.5 728.2Z" fill="#4242cb" stroke="#4242cb"></path><path d="M0 2895.1L108.8 2981.1L117.8 2781.2Z" fill="#4365dd" stroke="#4365dd"></path><path d="M445.5 3133.9L403.5 3254.8L632.4 3232.8Z" fill="#8ec0fc" stroke="#8ec0fc"></path><path d="M1232.8 3237.8L1392.6 3286.8L1385.6 3125.9Z" fill="#4242cb" stroke="#4242cb"></path><path d="M1232.8 3237.8L1060.9 3178.8L1091.9 3427.6Z" fill="#4a0eb3" stroke="#4a0eb3"></path><path d="M1482.5 559.4L1510.5 728.2L1589.5 498.5Z" fill="#4a0eb3" stroke="#4a0eb3"></path><path d="M1223.8 611.4L1075.9 515.5L1033.9 573.4Z" fill="#6ba3f5" stroke="#6ba3f5"></path><path d="M108.8 2981.1L250.7 3101.9L250.7 2882.1Z" fill="#4a0eb3" stroke="#4a0eb3"></path><path d="M1224.8 455.5L1075.9 515.5L1223.8 611.4Z" fill="#7cb2f9" stroke="#7cb2f9"></path><path d="M964.1 558.4L885.1 510.5L742.2 647.4Z" fill="#462dc0" stroke="#462dc0"></path><path d="M0 2816.2L0 2895.1L117.8 2781.2Z" fill="#8ec0fc" stroke="#8ec0fc"></path><path d="M284.7 3274.8L403.5 3254.8L250.7 3101.9Z" fill="#4365dd" stroke="#4365dd"></path><path d="M1714.3 3222.8L1723.3 3087.9L1589.5 3189.8Z" fill="#462dc0" stroke="#462dc0"></path><path d="M1890.2 3241.8L1891.2 3061.9L1723.3 3087.9Z" fill="#7cb2f9" stroke="#7cb2f9"></path><path d="M1723.3 3087.9L1891.2 3061.9L1836.2 2875.1Z" fill="#4242cb" stroke="#4242cb"></path><path d="M1091.9 3427.6L1060.9 3178.8L889.1 3246.8Z" fill="#8ec0fc" stroke="#8ec0fc"></path><path d="M1075.9 515.5L885.1 510.5L964.1 558.4Z" fill="#4a0eb3" stroke="#4a0eb3"></path><path d="M274.7 571.4L197.8 717.2L365.7 763.2Z" fill="#5185eb" stroke="#5185eb"></path><path d="M1891.2 3061.9L2000 2979.1L1836.2 2875.1Z" fill="#4154d5" stroke="#4154d5"></path><path d="M1738.3 630.4L1510.5 728.2L1727.3 812.2Z" fill="#8ec0fc" stroke="#8ec0fc"></path><path d="M1428.6 576.4L1224.8 455.5L1223.8 611.4Z" fill="#5185eb" stroke="#5185eb"></path><path d="M723.2 356.7L784.2 496.5L912.1 321.7Z" fill="#7cb2f9" stroke="#7cb2f9"></path><path d="M885.1 510.5L784.2 496.5L742.2 647.4Z" fill="#5185eb" stroke="#5185eb"></path><path d="M1555.5 3361.6L1589.5 3189.8L1392.6 3286.8Z" fill="#7cb2f9" stroke="#7cb2f9"></path><path d="M1555.5 3361.6L1714.3 3222.8L1589.5 3189.8Z" fill="#4365dd" stroke="#4365dd"></path><path d="M1891.2 3061.9L2000 3092.9L2000 2979.1Z" fill="#4365dd" stroke="#4365dd"></path><path d="M105.8 3077.9L250.7 3101.9L108.8 2981.1Z" fill="#8ec0fc" stroke="#8ec0fc"></path><path d="M250.7 3101.9L403.5 3254.8L445.5 3133.9Z" fill="#7cb2f9" stroke="#7cb2f9"></path><path d="M646.4 3421.6L764.2 3376.6L739.2 3267.8Z" fill="#462dc0" stroke="#462dc0"></path><path d="M739.2 3267.8L764.2 3376.6L889.1 3246.8Z" fill="#7cb2f9" stroke="#7cb2f9"></path><path d="M365.7 763.2L197.8 717.2L345.7 899.1Z" fill="#5d94f1" stroke="#5d94f1"></path><path d="M136.8 910.1L0 876.1L143.8 1037.9Z" fill="#4154d5" stroke="#4154d5"></path><path d="M462.5 567.4L365.7 763.2L601.4 663.4Z" fill="#462dc0" stroke="#462dc0"></path><path d="M646.4 3421.6L739.2 3267.8L632.4 3232.8Z" fill="#7cb2f9" stroke="#7cb2f9"></path><path d="M0 751.2L0 876.1L136.8 910.1Z" fill="#4242cb" stroke="#4242cb"></path><path d="M572.4 492.5L462.5 567.4L601.4 663.4Z" fill="#4365dd" stroke="#4365dd"></path><path d="M0 3077.9L105.8 3077.9L108.8 2981.1Z" fill="#4a0eb3" stroke="#4a0eb3"></path><path d="M1791.2 620.4L1738.3 630.4L1727.3 812.2Z" fill="#4365dd" stroke="#4365dd"></path><path d="M1791.2 620.4L1727.3 812.2L1850.2 812.2Z" fill="#4875e5" stroke="#4875e5"></path><path d="M1180.8 3566.5L1335.6 3380.6L1265.8 3333.6Z" fill="#462dc0" stroke="#462dc0"></path><path d="M1265.8 3333.6L1335.6 3380.6L1392.6 3286.8Z" fill="#4154d5" stroke="#4154d5"></path><path d="M1433.6 466.5L1224.8 455.5L1428.6 576.4Z" fill="#5185eb" stroke="#5185eb"></path><path d="M1075.9 515.5L1070.9 345.7L885.1 510.5Z" fill="#7cb2f9" stroke="#7cb2f9"></path><path d="M1433.6 466.5L1428.6 576.4L1482.5 559.4Z" fill="#4365dd" stroke="#4365dd"></path><path d="M877.1 3437.6L1091.9 3427.6L889.1 3246.8Z" fill="#4154d5" stroke="#4154d5"></path><path d="M784.2 496.5L572.4 492.5L742.2 647.4Z" fill="#7cb2f9" stroke="#7cb2f9"></path><path d="M462.5 567.4L274.7 571.4L365.7 763.2Z" fill="#6ba3f5" stroke="#6ba3f5"></path><path d="M503.5 419.5L572.4 492.5L580.4 345.7Z" fill="#4154d5" stroke="#4154d5"></path><path d="M2000 714.2L1791.2 620.4L1850.2 812.2Z" fill="#6ba3f5" stroke="#6ba3f5"></path><path d="M1589.5 498.5L1433.6 466.5L1482.5 559.4Z" fill="#4154d5" stroke="#4154d5"></path><path d="M1890.2 3241.8L2000 3092.9L1891.2 3061.9Z" fill="#6ba3f5" stroke="#6ba3f5"></path><path d="M1589.5 498.5L1510.5 728.2L1738.3 630.4Z" fill="#5d94f1" stroke="#5d94f1"></path><path d="M797.2 3562.5L877.1 3437.6L764.2 3376.6Z" fill="#4365dd" stroke="#4365dd"></path><path d="M764.2 3376.6L877.1 3437.6L889.1 3246.8Z" fill="#4a0eb3" stroke="#4a0eb3"></path><path d="M1401.6 3479.5L1555.5 3361.6L1392.6 3286.8Z" fill="#7cb2f9" stroke="#7cb2f9"></path><path d="M1714.3 3222.8L1890.2 3241.8L1723.3 3087.9Z" fill="#462dc0" stroke="#462dc0"></path><path d="M1401.6 3479.5L1392.6 3286.8L1335.6 3380.6Z" fill="#4154d5" stroke="#4154d5"></path><path d="M0 3187.8L142.8 3172.8L105.8 3077.9Z" fill="#4242cb" stroke="#4242cb"></path><path d="M105.8 3077.9L142.8 3172.8L250.7 3101.9Z" fill="#7cb2f9" stroke="#7cb2f9"></path><path d="M470.5 3418.6L646.4 3421.6L632.4 3232.8Z" fill="#5185eb" stroke="#5185eb"></path><path d="M1660.3 406.5L1589.5 498.5L1738.3 630.4Z" fill="#462dc0" stroke="#462dc0"></path><path d="M142.8 3172.8L284.7 3274.8L250.7 3101.9Z" fill="#5d94f1" stroke="#5d94f1"></path><path d="M470.5 3418.6L632.4 3232.8L403.5 3254.8Z" fill="#4875e5" stroke="#4875e5"></path><path d="M0 2895.1L0 3077.9L108.8 2981.1Z" fill="#8ec0fc" stroke="#8ec0fc"></path><path d="M161.8 3332.6L356.7 3387.6L284.7 3274.8Z" fill="#4a0eb3" stroke="#4a0eb3"></path><path d="M2000 976.1L2000 714.2L1850.2 812.2Z" fill="#6ba3f5" stroke="#6ba3f5"></path><path d="M1791.2 620.4L1660.3 406.5L1738.3 630.4Z" fill="#7cb2f9" stroke="#7cb2f9"></path><path d="M323.7 446.5L274.7 571.4L462.5 567.4Z" fill="#4242cb" stroke="#4242cb"></path><path d="M197.8 717.2L0 751.2L136.8 910.1Z" fill="#5d94f1" stroke="#5d94f1"></path><path d="M0 578.4L0 751.2L197.8 717.2Z" fill="#8ec0fc" stroke="#8ec0fc"></path><path d="M1789.2 3383.6L1890.2 3241.8L1714.3 3222.8Z" fill="#4875e5" stroke="#4875e5"></path><path d="M1256.8 262.7L1070.9 345.7L1224.8 455.5Z" fill="#4a0eb3" stroke="#4a0eb3"></path><path d="M1224.8 455.5L1070.9 345.7L1075.9 515.5Z" fill="#5185eb" stroke="#5185eb"></path><path d="M572.4 492.5L503.5 419.5L462.5 567.4Z" fill="#5d94f1" stroke="#5d94f1"></path><path d="M1256.8 262.7L1224.8 455.5L1423.6 287.7Z" fill="#4242cb" stroke="#4242cb"></path><path d="M2000 714.2L2000 668.4L1791.2 620.4Z" fill="#4875e5" stroke="#4875e5"></path><path d="M356.7 3387.6L403.5 3254.8L284.7 3274.8Z" fill="#4a0eb3" stroke="#4a0eb3"></path><path d="M356.7 3387.6L470.5 3418.6L403.5 3254.8Z" fill="#4154d5" stroke="#4154d5"></path><path d="M797.2 3562.5L964.1 3542.5L877.1 3437.6Z" fill="#8ec0fc" stroke="#8ec0fc"></path><path d="M1180.8 3566.5L1265.8 3333.6L1091.9 3427.6Z" fill="#4a0eb3" stroke="#4a0eb3"></path><path d="M1180.8 3566.5L1401.6 3479.5L1335.6 3380.6Z" fill="#4875e5" stroke="#4875e5"></path><path d="M1555.5 3361.6L1647.3 3417.6L1714.3 3222.8Z" fill="#6ba3f5" stroke="#6ba3f5"></path><path d="M964.1 3542.5L1091.9 3427.6L877.1 3437.6Z" fill="#4875e5" stroke="#4875e5"></path><path d="M723.2 356.7L572.4 492.5L784.2 496.5Z" fill="#6ba3f5" stroke="#6ba3f5"></path><path d="M274.7 571.4L168.8 556.4L197.8 717.2Z" fill="#7cb2f9" stroke="#7cb2f9"></path><path d="M912.1 321.7L784.2 496.5L885.1 510.5Z" fill="#6ba3f5" stroke="#6ba3f5"></path><path d="M161.8 3332.6L284.7 3274.8L142.8 3172.8Z" fill="#7cb2f9" stroke="#7cb2f9"></path><path d="M1070.9 345.7L912.1 321.7L885.1 510.5Z" fill="#6ba3f5" stroke="#6ba3f5"></path><path d="M1545.5 3503.5L1647.3 3417.6L1555.5 3361.6Z" fill="#4365dd" stroke="#4365dd"></path><path d="M797.2 3562.5L764.2 3376.6L646.4 3421.6Z" fill="#4242cb" stroke="#4242cb"></path><path d="M454.5 3528.5L621.4 3491.5L470.5 3418.6Z" fill="#4154d5" stroke="#4154d5"></path><path d="M470.5 3418.6L621.4 3491.5L646.4 3421.6Z" fill="#4a0eb3" stroke="#4a0eb3"></path><path d="M323.7 446.5L168.8 556.4L274.7 571.4Z" fill="#4242cb" stroke="#4242cb"></path><path d="M964.1 3542.5L1108.9 3551.5L1091.9 3427.6Z" fill="#462dc0" stroke="#462dc0"></path><path d="M0 3077.9L0 3187.8L105.8 3077.9Z" fill="#8ec0fc" stroke="#8ec0fc"></path><path d="M1697.3 3503.5L1789.2 3383.6L1647.3 3417.6Z" fill="#4875e5" stroke="#4875e5"></path><path d="M1647.3 3417.6L1789.2 3383.6L1714.3 3222.8Z" fill="#4875e5" stroke="#4875e5"></path><path d="M1890.2 3241.8L2000 3284.8L2000 3092.9Z" fill="#4242cb" stroke="#4242cb"></path><path d="M419.5 260.7L323.7 446.5L503.5 419.5Z" fill="#7cb2f9" stroke="#7cb2f9"></path><path d="M503.5 419.5L323.7 446.5L462.5 567.4Z" fill="#4365dd" stroke="#4365dd"></path><path d="M1108.9 3551.5L1180.8 3566.5L1091.9 3427.6Z" fill="#5d94f1" stroke="#5d94f1"></path><path d="M1401.6 3479.5L1545.5 3503.5L1555.5 3361.6Z" fill="#7cb2f9" stroke="#7cb2f9"></path><path d="M1238.8 3671.3L1180.8 3566.5L1092.9 3729.3Z" fill="#5185eb" stroke="#5185eb"></path><path d="M723.2 356.7L580.4 345.7L572.4 492.5Z" fill="#5d94f1" stroke="#5d94f1"></path><path d="M419.5 260.7L580.4 345.7L519.5 156.8Z" fill="#6ba3f5" stroke="#6ba3f5"></path><path d="M1897.2 415.5L1660.3 406.5L1791.2 620.4Z" fill="#4242cb" stroke="#4242cb"></path><path d="M1589.5 498.5L1482.5 316.7L1433.6 466.5Z" fill="#4875e5" stroke="#4875e5"></path><path d="M1070.9 345.7L1084.9 189.8L912.1 321.7Z" fill="#4875e5" stroke="#4875e5"></path><path d="M621.4 3491.5L797.2 3562.5L646.4 3421.6Z" fill="#5185eb" stroke="#5185eb"></path><path d="M964.1 3542.5L1092.9 3729.3L1108.9 3551.5Z" fill="#4154d5" stroke="#4154d5"></path><path d="M794.2 3665.3L797.2 3562.5L621.4 3728.3Z" fill="#8ec0fc" stroke="#8ec0fc"></path><path d="M0 3187.8L161.8 3332.6L142.8 3172.8Z" fill="#4365dd" stroke="#4365dd"></path><path d="M356.7 3387.6L454.5 3528.5L470.5 3418.6Z" fill="#6ba3f5" stroke="#6ba3f5"></path><path d="M1570.5 3638.3L1545.5 3503.5L1401.6 3479.5Z" fill="#5d94f1" stroke="#5d94f1"></path><path d="M1789.2 3383.6L2000 3284.8L1890.2 3241.8Z" fill="#4242cb" stroke="#4242cb"></path><path d="M2000 3442.6L2000 3284.8L1789.2 3383.6Z" fill="#6ba3f5" stroke="#6ba3f5"></path><path d="M1660.3 406.5L1482.5 316.7L1589.5 498.5Z" fill="#462dc0" stroke="#462dc0"></path><path d="M1423.6 287.7L1224.8 455.5L1433.6 466.5Z" fill="#5185eb" stroke="#5185eb"></path><path d="M912.1 321.7L810.2 96.8L723.2 356.7Z" fill="#5d94f1" stroke="#5d94f1"></path><path d="M1482.5 316.7L1423.6 287.7L1433.6 466.5Z" fill="#4154d5" stroke="#4154d5"></path><path d="M168.8 556.4L0 578.4L197.8 717.2Z" fill="#5d94f1" stroke="#5d94f1"></path><path d="M137.8 432.5L0 578.4L168.8 556.4Z" fill="#5d94f1" stroke="#5d94f1"></path><path d="M324.7 3581.5L454.5 3528.5L356.7 3387.6Z" fill="#4875e5" stroke="#4875e5"></path><path d="M1570.5 3638.3L1697.3 3503.5L1545.5 3503.5Z" fill="#5d94f1" stroke="#5d94f1"></path><path d="M1545.5 3503.5L1697.3 3503.5L1647.3 3417.6Z" fill="#5d94f1" stroke="#5d94f1"></path><path d="M794.2 3665.3L865.1 3633.3L797.2 3562.5Z" fill="#4242cb" stroke="#4242cb"></path><path d="M797.2 3562.5L865.1 3633.3L964.1 3542.5Z" fill="#8ec0fc" stroke="#8ec0fc"></path><path d="M1180.8 3566.5L1238.8 3671.3L1401.6 3479.5Z" fill="#4365dd" stroke="#4365dd"></path><path d="M1269.8 175.8L1084.9 189.8L1256.8 262.7Z" fill="#4242cb" stroke="#4242cb"></path><path d="M1256.8 262.7L1084.9 189.8L1070.9 345.7Z" fill="#4154d5" stroke="#4154d5"></path><path d="M174.8 260.7L137.8 432.5L323.7 446.5Z" fill="#8ec0fc" stroke="#8ec0fc"></path><path d="M323.7 446.5L137.8 432.5L168.8 556.4Z" fill="#4242cb" stroke="#4242cb"></path><path d="M419.5 260.7L503.5 419.5L580.4 345.7Z" fill="#7cb2f9" stroke="#7cb2f9"></path><path d="M1660.3 406.5L1710.3 321.7L1482.5 316.7Z" fill="#5185eb" stroke="#5185eb"></path><path d="M1482.5 316.7L1513.5 178.8L1423.6 287.7Z" fill="#4a0eb3" stroke="#4a0eb3"></path><path d="M1423.6 287.7L1269.8 175.8L1256.8 262.7Z" fill="#462dc0" stroke="#462dc0"></path><path d="M2000 668.4L1897.2 415.5L1791.2 620.4Z" fill="#4242cb" stroke="#4242cb"></path><path d="M1897.2 415.5L1710.3 321.7L1660.3 406.5Z" fill="#5d94f1" stroke="#5d94f1"></path><path d="M621.4 3728.3L797.2 3562.5L621.4 3491.5Z" fill="#4365dd" stroke="#4365dd"></path><path d="M1092.9 3729.3L1180.8 3566.5L1108.9 3551.5Z" fill="#4a0eb3" stroke="#4a0eb3"></path><path d="M1092.9 3729.3L964.1 3542.5L865.1 3633.3Z" fill="#4242cb" stroke="#4242cb"></path><path d="M1380.6 135.8L1269.8 175.8L1423.6 287.7Z" fill="#7cb2f9" stroke="#7cb2f9"></path><path d="M519.5 156.8L580.4 345.7L662.4 98.8Z" fill="#7cb2f9" stroke="#7cb2f9"></path><path d="M0 3187.8L0 3375.6L161.8 3332.6Z" fill="#4365dd" stroke="#4365dd"></path><path d="M119.8 3522.5L324.7 3581.5L356.7 3387.6Z" fill="#4365dd" stroke="#4365dd"></path><path d="M454.5 3528.5L621.4 3728.3L621.4 3491.5Z" fill="#462dc0" stroke="#462dc0"></path><path d="M1897.2 415.5L1865.2 270.7L1710.3 321.7Z" fill="#5185eb" stroke="#5185eb"></path><path d="M2000 668.4L2000 432.5L1897.2 415.5Z" fill="#4242cb" stroke="#4242cb"></path><path d="M1437.6 3714.3L1570.5 3638.3L1401.6 3479.5Z" fill="#6ba3f5" stroke="#6ba3f5"></path><path d="M1853.2 3569.5L2000 3442.6L1789.2 3383.6Z" fill="#462dc0" stroke="#462dc0"></path><path d="M119.8 3522.5L356.7 3387.6L161.8 3332.6Z" fill="#4a0eb3" stroke="#4a0eb3"></path><path d="M1853.2 3569.5L1789.2 3383.6L1697.3 3503.5Z" fill="#4365dd" stroke="#4365dd"></path><path d="M902.1 3826.2L1092.9 3729.3L865.1 3633.3Z" fill="#7cb2f9" stroke="#7cb2f9"></path><path d="M1238.8 3671.3L1437.6 3714.3L1401.6 3479.5Z" fill="#4154d5" stroke="#4154d5"></path><path d="M902.1 3826.2L865.1 3633.3L794.2 3665.3Z" fill="#4242cb" stroke="#4242cb"></path><path d="M1737.3 162.8L1513.5 178.8L1710.3 321.7Z" fill="#6ba3f5" stroke="#6ba3f5"></path><path d="M1710.3 321.7L1513.5 178.8L1482.5 316.7Z" fill="#6ba3f5" stroke="#6ba3f5"></path><path d="M916.1 0L869.1 103.8L1084.9 189.8Z" fill="#6ba3f5" stroke="#6ba3f5"></path><path d="M1084.9 189.8L869.1 103.8L912.1 321.7Z" fill="#8ec0fc" stroke="#8ec0fc"></path><path d="M1513.5 178.8L1380.6 135.8L1423.6 287.7Z" fill="#4242cb" stroke="#4242cb"></path><path d="M1099.9 0L1084.9 189.8L1241.8 0Z" fill="#4242cb" stroke="#4242cb"></path><path d="M1336.6 3874.2L1437.6 3714.3L1238.8 3671.3Z" fill="#7cb2f9" stroke="#7cb2f9"></path><path d="M1656.3 3661.3L1853.2 3569.5L1697.3 3503.5Z" fill="#462dc0" stroke="#462dc0"></path><path d="M1656.3 3661.3L1697.3 3503.5L1570.5 3638.3Z" fill="#4875e5" stroke="#4875e5"></path><path d="M0 3375.6L119.8 3522.5L161.8 3332.6Z" fill="#4365dd" stroke="#4365dd"></path><path d="M137.8 432.5L0 403.5L0 578.4Z" fill="#6ba3f5" stroke="#6ba3f5"></path><path d="M0 336.7L0 403.5L137.8 432.5Z" fill="#5d94f1" stroke="#5d94f1"></path><path d="M272.7 248.7L323.7 446.5L419.5 260.7Z" fill="#5185eb" stroke="#5185eb"></path><path d="M1677.3 3861.2L1656.3 3661.3L1571.5 3898.2Z" fill="#4875e5" stroke="#4875e5"></path><path d="M304.7 151.8L272.7 248.7L419.5 260.7Z" fill="#4154d5" stroke="#4154d5"></path><path d="M662.4 98.8L580.4 345.7L723.2 356.7Z" fill="#7cb2f9" stroke="#7cb2f9"></path><path d="M916.1 0L810.2 96.8L869.1 103.8Z" fill="#5d94f1" stroke="#5d94f1"></path><path d="M869.1 103.8L810.2 96.8L912.1 321.7Z" fill="#4154d5" stroke="#4154d5"></path><path d="M478.5 3729.3L454.5 3528.5L324.7 3581.5Z" fill="#4365dd" stroke="#4365dd"></path><path d="M478.5 3729.3L621.4 3728.3L454.5 3528.5Z" fill="#462dc0" stroke="#462dc0"></path><path d="M2000 332.7L1865.2 270.7L1897.2 415.5Z" fill="#6ba3f5" stroke="#6ba3f5"></path><path d="M1386.6 0L1241.8 0L1380.6 135.8Z" fill="#6ba3f5" stroke="#6ba3f5"></path><path d="M810.2 96.8L662.4 98.8L723.2 356.7Z" fill="#5d94f1" stroke="#5d94f1"></path><path d="M144.8 144.8L174.8 260.7L272.7 248.7Z" fill="#4154d5" stroke="#4154d5"></path><path d="M2000 432.5L2000 332.7L1897.2 415.5Z" fill="#4a0eb3" stroke="#4a0eb3"></path><path d="M304.7 151.8L419.5 260.7L519.5 156.8Z" fill="#462dc0" stroke="#462dc0"></path><path d="M272.7 248.7L174.8 260.7L323.7 446.5Z" fill="#4242cb" stroke="#4242cb"></path><path d="M356.7 3736.3L478.5 3729.3L324.7 3581.5Z" fill="#4365dd" stroke="#4365dd"></path><path d="M808.2 3887.2L902.1 3826.2L794.2 3665.3Z" fill="#4a0eb3" stroke="#4a0eb3"></path><path d="M0 3375.6L0 3505.5L119.8 3522.5Z" fill="#4a0eb3" stroke="#4a0eb3"></path><path d="M147.8 3719.3L356.7 3736.3L324.7 3581.5Z" fill="#462dc0" stroke="#462dc0"></path><path d="M2000 3718.3L2000 3549.5L1853.2 3569.5Z" fill="#5d94f1" stroke="#5d94f1"></path><path d="M1853.2 3569.5L2000 3549.5L2000 3442.6Z" fill="#462dc0" stroke="#462dc0"></path><path d="M174.8 260.7L0 336.7L137.8 432.5Z" fill="#6ba3f5" stroke="#6ba3f5"></path><path d="M1801.2 184.8L1710.3 321.7L1865.2 270.7Z" fill="#462dc0" stroke="#462dc0"></path><path d="M1801.2 184.8L1737.3 162.8L1710.3 321.7Z" fill="#4a0eb3" stroke="#4a0eb3"></path><path d="M808.2 3887.2L794.2 3665.3L621.4 3728.3Z" fill="#4154d5" stroke="#4154d5"></path><path d="M1092.9 3729.3L1193.8 3827.2L1238.8 3671.3Z" fill="#4365dd" stroke="#4365dd"></path><path d="M2000 193.8L1801.2 184.8L1865.2 270.7Z" fill="#4365dd" stroke="#4365dd"></path><path d="M1055.9 3858.2L1193.8 3827.2L1092.9 3729.3Z" fill="#4a0eb3" stroke="#4a0eb3"></path><path d="M1571.5 3898.2L1656.3 3661.3L1570.5 3638.3Z" fill="#7cb2f9" stroke="#7cb2f9"></path><path d="M1656.3 3661.3L1814.2 3750.3L1853.2 3569.5Z" fill="#462dc0" stroke="#462dc0"></path><path d="M449.5 0L304.7 151.8L519.5 156.8Z" fill="#5185eb" stroke="#5185eb"></path><path d="M174.8 260.7L0 154.8L0 336.7Z" fill="#8ec0fc" stroke="#8ec0fc"></path><path d="M1241.8 0L1269.8 175.8L1380.6 135.8Z" fill="#4242cb" stroke="#4242cb"></path><path d="M1241.8 0L1084.9 189.8L1269.8 175.8Z" fill="#7cb2f9" stroke="#7cb2f9"></path><path d="M810.2 96.8L750.2 0L662.4 98.8Z" fill="#8ec0fc" stroke="#8ec0fc"></path><path d="M662.4 98.8L610.4 0L519.5 156.8Z" fill="#4875e5" stroke="#4875e5"></path><path d="M147.8 3719.3L324.7 3581.5L119.8 3522.5Z" fill="#4154d5" stroke="#4154d5"></path><path d="M478.5 3729.3L454.5 3802.2L621.4 3728.3Z" fill="#4154d5" stroke="#4154d5"></path><path d="M902.1 3826.2L1055.9 3858.2L1092.9 3729.3Z" fill="#4365dd" stroke="#4365dd"></path><path d="M1068.9 4000L1055.9 3858.2L913.1 4000Z" fill="#4154d5" stroke="#4154d5"></path><path d="M1099.9 0L916.1 0L1084.9 189.8Z" fill="#6ba3f5" stroke="#6ba3f5"></path><path d="M1386.6 0L1380.6 135.8L1495.5 0Z" fill="#5d94f1" stroke="#5d94f1"></path><path d="M916.1 0L750.2 0L810.2 96.8Z" fill="#7cb2f9" stroke="#7cb2f9"></path><path d="M363.7 3865.2L454.5 3802.2L356.7 3736.3Z" fill="#462dc0" stroke="#462dc0"></path><path d="M356.7 3736.3L454.5 3802.2L478.5 3729.3Z" fill="#4242cb" stroke="#4242cb"></path><path d="M1495.5 0L1380.6 135.8L1513.5 178.8Z" fill="#6ba3f5" stroke="#6ba3f5"></path><path d="M1495.5 0L1513.5 178.8L1727.3 0Z" fill="#4875e5" stroke="#4875e5"></path><path d="M1282.8 4000L1336.6 3874.2L1193.8 3827.2Z" fill="#5d94f1" stroke="#5d94f1"></path><path d="M1193.8 3827.2L1336.6 3874.2L1238.8 3671.3Z" fill="#4154d5" stroke="#4154d5"></path><path d="M628.4 3878.2L808.2 3887.2L621.4 3728.3Z" fill="#4a0eb3" stroke="#4a0eb3"></path><path d="M1055.9 3858.2L1068.9 4000L1193.8 3827.2Z" fill="#5185eb" stroke="#5185eb"></path><path d="M750.2 0L610.4 0L662.4 98.8Z" fill="#4154d5" stroke="#4154d5"></path><path d="M1677.3 3861.2L1814.2 3750.3L1656.3 3661.3Z" fill="#6ba3f5" stroke="#6ba3f5"></path><path d="M1727.3 0L1513.5 178.8L1737.3 162.8Z" fill="#5d94f1" stroke="#5d94f1"></path><path d="M2000 332.7L2000 193.8L1865.2 270.7Z" fill="#8ec0fc" stroke="#8ec0fc"></path><path d="M1801.2 184.8L1727.3 0L1737.3 162.8Z" fill="#5185eb" stroke="#5185eb"></path><path d="M454.5 3802.2L628.4 3878.2L621.4 3728.3Z" fill="#462dc0" stroke="#462dc0"></path><path d="M145.8 0L144.8 144.8L304.7 151.8Z" fill="#7cb2f9" stroke="#7cb2f9"></path><path d="M304.7 151.8L144.8 144.8L272.7 248.7Z" fill="#4365dd" stroke="#4365dd"></path><path d="M0 3692.3L147.8 3719.3L119.8 3522.5Z" fill="#4242cb" stroke="#4242cb"></path><path d="M454.5 3802.2L561.4 4000L628.4 3878.2Z" fill="#4154d5" stroke="#4154d5"></path><path d="M610.4 0L449.5 0L519.5 156.8Z" fill="#5d94f1" stroke="#5d94f1"></path><path d="M1842.2 3806.2L2000 3718.3L1814.2 3750.3Z" fill="#4242cb" stroke="#4242cb"></path><path d="M1814.2 3750.3L2000 3718.3L1853.2 3569.5Z" fill="#7cb2f9" stroke="#7cb2f9"></path><path d="M1571.5 3898.2L1570.5 3638.3L1437.6 3714.3Z" fill="#5185eb" stroke="#5185eb"></path><path d="M449.5 0L361.7 0L304.7 151.8Z" fill="#4a0eb3" stroke="#4a0eb3"></path><path d="M1336.6 3874.2L1571.5 3898.2L1437.6 3714.3Z" fill="#4154d5" stroke="#4154d5"></path><path d="M1433.6 4000L1571.5 3898.2L1336.6 3874.2Z" fill="#8ec0fc" stroke="#8ec0fc"></path><path d="M0 3505.5L0 3692.3L119.8 3522.5Z" fill="#4a0eb3" stroke="#4a0eb3"></path><path d="M207.8 3824.2L363.7 3865.2L356.7 3736.3Z" fill="#4154d5" stroke="#4154d5"></path><path d="M2000 3789.2L1842.2 3806.2L1887.2 4000Z" fill="#4a0eb3" stroke="#4a0eb3"></path><path d="M1677.3 3861.2L1842.2 3806.2L1814.2 3750.3Z" fill="#6ba3f5" stroke="#6ba3f5"></path><path d="M207.8 3824.2L356.7 3736.3L147.8 3719.3Z" fill="#462dc0" stroke="#462dc0"></path><path d="M913.1 4000L902.1 3826.2L808.2 3887.2Z" fill="#4242cb" stroke="#4242cb"></path><path d="M1881.2 0L1727.3 0L1801.2 184.8Z" fill="#4154d5" stroke="#4154d5"></path><path d="M0 0L0 154.8L144.8 144.8Z" fill="#7cb2f9" stroke="#7cb2f9"></path><path d="M144.8 144.8L0 154.8L174.8 260.7Z" fill="#4154d5" stroke="#4154d5"></path><path d="M0 3795.2L207.8 3824.2L147.8 3719.3Z" fill="#4154d5" stroke="#4154d5"></path><path d="M913.1 4000L808.2 3887.2L774.2 4000Z" fill="#7cb2f9" stroke="#7cb2f9"></path><path d="M913.1 4000L1055.9 3858.2L902.1 3826.2Z" fill="#4875e5" stroke="#4875e5"></path><path d="M774.2 4000L808.2 3887.2L628.4 3878.2Z" fill="#4242cb" stroke="#4242cb"></path><path d="M1068.9 4000L1282.8 4000L1193.8 3827.2Z" fill="#4242cb" stroke="#4242cb"></path><path d="M1887.2 4000L1842.2 3806.2L1677.3 3861.2Z" fill="#7cb2f9" stroke="#7cb2f9"></path><path d="M561.4 4000L774.2 4000L628.4 3878.2Z" fill="#4875e5" stroke="#4875e5"></path><path d="M561.4 4000L454.5 3802.2L412.5 4000Z" fill="#462dc0" stroke="#462dc0"></path><path d="M1668.3 4000L1677.3 3861.2L1571.5 3898.2Z" fill="#4242cb" stroke="#4242cb"></path><path d="M1842.2 3806.2L2000 3789.2L2000 3718.3Z" fill="#4242cb" stroke="#4242cb"></path><path d="M2000 193.8L1881.2 0L1801.2 184.8Z" fill="#7cb2f9" stroke="#7cb2f9"></path><path d="M1282.8 4000L1433.6 4000L1336.6 3874.2Z" fill="#5d94f1" stroke="#5d94f1"></path><path d="M1433.6 4000L1486.5 4000L1571.5 3898.2Z" fill="#4a0eb3" stroke="#4a0eb3"></path><path d="M361.7 0L145.8 0L304.7 151.8Z" fill="#4365dd" stroke="#4365dd"></path><path d="M412.5 4000L454.5 3802.2L363.7 3865.2Z" fill="#5d94f1" stroke="#5d94f1"></path><path d="M0 3692.3L0 3795.2L147.8 3719.3Z" fill="#8ec0fc" stroke="#8ec0fc"></path><path d="M292.7 4000L412.5 4000L363.7 3865.2Z" fill="#4a0eb3" stroke="#4a0eb3"></path><path d="M2000 193.8L2000 0L1881.2 0Z" fill="#4242cb" stroke="#4242cb"></path><path d="M292.7 4000L363.7 3865.2L207.8 3824.2Z" fill="#462dc0" stroke="#462dc0"></path><path d="M1486.5 4000L1668.3 4000L1571.5 3898.2Z" fill="#4875e5" stroke="#4875e5"></path><path d="M145.8 0L0 0L144.8 144.8Z" fill="#462dc0" stroke="#462dc0"></path><path d="M195.8 4000L292.7 4000L207.8 3824.2Z" fill="#5185eb" stroke="#5185eb"></path><path d="M0 4000L195.8 4000L207.8 3824.2Z" fill="#5d94f1" stroke="#5d94f1"></path><path d="M1668.3 4000L1887.2 4000L1677.3 3861.2Z" fill="#4365dd" stroke="#4365dd"></path><path d="M1887.2 4000L2000 4000L2000 3789.2Z" fill="#5185eb" stroke="#5185eb"></path><path d="M0 3795.2L0 4000L207.8 3824.2Z" fill="#5185eb" stroke="#5185eb"></path></g></svg>